<svg id="directions_bus-black-18dp" xmlns="http://www.w3.org/2000/svg" width="24" height="24" viewBox="0 0 24 24">
  <path id="Tracé_2158" data-name="Tracé 2158" d="M0,0H24V24H0Z" fill="none"/>
  <path id="Tracé_2159" data-name="Tracé 2159" d="M4,16a2.986,2.986,0,0,0,1,2.22V20a1,1,0,0,0,1,1H7a1,1,0,0,0,1-1V19h8v1a1,1,0,0,0,1,1h1a1,1,0,0,0,1-1V18.22A2.986,2.986,0,0,0,20,16V6c0-3.5-3.58-4-8-4S4,2.5,4,6Zm3.5,1A1.5,1.5,0,1,1,9,15.5,1.5,1.5,0,0,1,7.5,17Zm9,0A1.5,1.5,0,1,1,18,15.5,1.5,1.5,0,0,1,16.5,17ZM18,11H6V6H18Z" fill="#009c15"/>
</svg>
