<svg id="child_friendly-black-18dp" xmlns="http://www.w3.org/2000/svg" width="24" height="24" viewBox="0 0 24 24">
  <path id="Tracé_2149" data-name="Tracé 2149" d="M0,0H24V24H0Z" fill="none"/>
  <path id="Tracé_2150" data-name="Tracé 2150" d="M13,2v8h8A8,8,0,0,0,13,2Zm6.32,13.89A7.948,7.948,0,0,0,21,11H6.44L5.49,9H2v2H4.22s1.89,4.07,2.12,4.42A3.5,3.5,0,1,0,11.46,19h2.08a3.5,3.5,0,1,0,5.78-3.11ZM8,20a1.5,1.5,0,1,1,1.5-1.5A1.5,1.5,0,0,1,8,20Zm9,0a1.5,1.5,0,1,1,1.5-1.5A1.5,1.5,0,0,1,17,20Z" fill="#9700ce"/>
</svg>
