<svg id="sports_handball-black-18dp" xmlns="http://www.w3.org/2000/svg" width="24" height="24" viewBox="0 0 24 24">
  <g id="Groupe_1547" data-name="Groupe 1547">
    <rect id="Rectangle_676" data-name="Rectangle 676" width="24" height="24" fill="none"/>
  </g>
  <g id="Groupe_1549" data-name="Groupe 1549">
    <g id="Groupe_1548" data-name="Groupe 1548">
      <path id="Tracé_2125" data-name="Tracé 2125" d="M14.27,6A2,2,0,1,0,17,5.27,2.006,2.006,0,0,0,14.27,6Z" fill="#ff9000"/>
      <path id="Tracé_2126" data-name="Tracé 2126" d="M15.84,10.41l-2.6-1.5a5,5,0,0,1-1.82-6.82l-1.73-1a7.016,7.016,0,0,0,.97,8.31L5.51,18.32l1.73,1,1.5-2.6,1.73,1-3,5.2,1.73,1,6.29-10.89a5,5,0,0,1,.31,5.46l1.73,1A7.105,7.105,0,0,0,15.84,10.41Z" fill="#ff9000"/>
      <path id="Tracé_2127" data-name="Tracé 2127" d="M12.75,3.8a1.5,1.5,0,1,0-.55-2.05A1.5,1.5,0,0,0,12.75,3.8Z" fill="#ff9000"/>
    </g>
  </g>
</svg>
