<svg xmlns="http://www.w3.org/2000/svg" width="20.211" height="24" viewBox="0 0 20.211 24">
  <path id="Tracé_1250" data-name="Tracé 1250" d="M14.105,2C8.522,2,4,2.632,4,7.053v12a4.426,4.426,0,0,0,4.421,4.421L6.526,25.368V26H21.684v-.632l-1.895-1.895a4.426,4.426,0,0,0,4.421-4.421v-12C24.211,2.632,19.688,2,14.105,2ZM8.421,20.947a1.895,1.895,0,1,1,1.895-1.895A1.892,1.892,0,0,1,8.421,20.947Zm4.421-7.579H6.526V7.053h6.316Zm6.947,7.579a1.895,1.895,0,1,1,1.895-1.895A1.892,1.892,0,0,1,19.789,20.947Zm1.895-7.579H15.368V7.053h6.316Z" transform="translate(-4 -2)" fill="#003cff"/>
</svg>
