<svg id="pedal_bike-black-18dp_1_" data-name="pedal_bike-black-18dp (1)" xmlns="http://www.w3.org/2000/svg" width="24" height="24" viewBox="0 0 24 24">
  <g id="Groupe_1569" data-name="Groupe 1569">
    <rect id="Rectangle_683" data-name="Rectangle 683" width="24" height="24" fill="none"/>
  </g>
  <g id="Groupe_1570" data-name="Groupe 1570">
    <path id="Tracé_2155" data-name="Tracé 2155" d="M18.18,10l-1.7-4.68A2.008,2.008,0,0,0,14.6,4H12V6h2.6l1.46,4H11.25l-.36-1H12V7H7V9H8.75l1.82,5H9.9a4.93,4.93,0,0,0-4.65-3.99A5.069,5.069,0,0,0,0,15a4.951,4.951,0,0,0,5,5,4.931,4.931,0,0,0,4.9-4h4.2a4.93,4.93,0,0,0,4.65,3.99,5.077,5.077,0,0,0,5.25-5,4.951,4.951,0,0,0-5-5h-.82ZM7.82,16A2.949,2.949,0,0,1,5,18a3,3,0,0,1,0-6,2.949,2.949,0,0,1,2.82,2H5v2Zm6.28-2H12.7l-.73-2H15A4.734,4.734,0,0,0,14.1,14ZM19,18a3,3,0,0,1-1.95-5.28l.96,2.64,1.88-.68-.97-2.67c.03,0,.06-.01.09-.01A3,3,0,1,1,19,18Z" fill="rgba(255,0,0,0.99)"/>
  </g>
</svg>
