<svg xmlns="http://www.w3.org/2000/svg" width="1200" height="391" viewBox="0 0 1200 391">
  <g id="Groupe_1546" data-name="Groupe 1546" transform="translate(-360 -3009)">
    <g id="Composant_3_2" data-name="Composant 3 – 2" transform="translate(360 3009)">
      <g id="Rectangle_660" data-name="Rectangle 660" fill="#fff" stroke="#e2e2e2" stroke-width="1">
        <rect width="1200" height="391" rx="4" stroke="none"/>
        <rect x="0.5" y="0.5" width="1199" height="427" rx="3.5" fill="none"/>
      </g>
    </g>
    <g id="_3d_rotation-24px" data-name="3d_rotation-24px" transform="translate(874 3137)">
      <path id="Tracé_2118" data-name="Tracé 2118" d="M0,0H172.614V172.614H0Z" fill="none"/>
    </g>
    <path id="Tracé_2119" data-name="Tracé 2119" d="M50.472,144.99a70.787,70.787,0,0,1-40.3-57.24H.05A80.96,80.96,0,0,0,80.713,162l4.455-.2L59.45,136.08l-8.978,8.91Zm6.007-44.01a11.269,11.269,0,0,1-3.51-.54,7.219,7.219,0,0,1-2.7-1.62,6.691,6.691,0,0,1-1.755-2.5,8.055,8.055,0,0,1-.608-3.173H39.132a13.813,13.813,0,0,0,1.417,6.412,14.922,14.922,0,0,0,3.78,4.657,17.051,17.051,0,0,0,5.535,2.768A20.361,20.361,0,0,0,56.345,108a22.767,22.767,0,0,0,6.952-1.012,16.459,16.459,0,0,0,5.6-2.97,13.351,13.351,0,0,0,3.712-4.86,15.765,15.765,0,0,0,1.35-6.548,14.156,14.156,0,0,0-.473-3.78,11.272,11.272,0,0,0-1.552-3.443,12.132,12.132,0,0,0-2.7-2.9,13.88,13.88,0,0,0-4.117-2.092,14.159,14.159,0,0,0,3.51-2.227,13.95,13.95,0,0,0,2.5-2.835,11.9,11.9,0,0,0,1.485-3.1,10.762,10.762,0,0,0,.472-3.24A16.315,16.315,0,0,0,71.87,62.5a12.017,12.017,0,0,0-3.443-4.658,13.887,13.887,0,0,0-5.2-2.9A24.6,24.6,0,0,0,56.345,54a19.941,19.941,0,0,0-6.75,1.08,17.174,17.174,0,0,0-5.333,3.037A15.175,15.175,0,0,0,40.82,62.64a13.451,13.451,0,0,0-1.215,5.738H48.38a7.177,7.177,0,0,1,.608-3.037,6.344,6.344,0,0,1,1.688-2.295A8,8,0,0,1,53.24,61.56a9.879,9.879,0,0,1,3.24-.54c2.7,0,4.725.675,6.007,2.093a8.154,8.154,0,0,1,1.958,5.805,10.294,10.294,0,0,1-.54,3.307,5.871,5.871,0,0,1-1.687,2.5,8.559,8.559,0,0,1-2.767,1.62,11.358,11.358,0,0,1-3.915.607h-5.2V83.9h5.2a15.163,15.163,0,0,1,4.05.472,8.075,8.075,0,0,1,3.037,1.553,7.951,7.951,0,0,1,1.958,2.7,9.566,9.566,0,0,1,.675,3.848,8.092,8.092,0,0,1-2.363,6.277,8.649,8.649,0,0,1-6.412,2.228Zm57.712-39.96a22.48,22.48,0,0,0-7.695-5.2A25.391,25.391,0,0,0,96.642,54H80.713v54H96.237a27.4,27.4,0,0,0,10.193-1.822,22.242,22.242,0,0,0,7.83-5.13,22.781,22.781,0,0,0,4.995-8.033,30.878,30.878,0,0,0,1.755-10.6v-2.7a30.878,30.878,0,0,0-1.755-10.6,23.587,23.587,0,0,0-5.062-8.1ZM111.56,82.35a29.486,29.486,0,0,1-.945,7.627,16.41,16.41,0,0,1-2.9,5.738,12.619,12.619,0,0,1-4.793,3.577,17.346,17.346,0,0,1-6.683,1.215H90.1V61.56h6.548c4.86,0,8.573,1.553,11.07,4.658,2.565,3.105,3.847,7.56,3.847,13.432ZM80.713,0,76.257.2,101.975,25.92l8.978-8.978a70.675,70.675,0,0,1,40.23,57.24h10.125A80.842,80.842,0,0,0,80.713,0Z" transform="translate(879.31 3142)" fill="#e2e2e2"/>
  </g>
</svg>
