<svg id="Composant_4_1" data-name="Composant 4 – 1" xmlns="http://www.w3.org/2000/svg" width="1200" height="391" viewBox="0 0 1200 391">
  <g id="Composant_3_1" data-name="Composant 3 – 1">
    <g id="Rectangle_660" data-name="Rectangle 660" fill="#fff" stroke="#ff9800" stroke-width="1">
      <rect width="589" height="391" rx="4" stroke="none"/>
      <rect x="0.5" y="0.5" width="588" height="390" rx="3.5" fill="none"/>
    </g>
    <g id="Rectangle_661" data-name="Rectangle 661" transform="translate(611)" fill="#fff" stroke="#ff9800" stroke-width="1">
      <rect width="589" height="45" rx="4" stroke="none"/>
      <rect x="0.5" y="0.5" width="588" height="44" rx="3.5" fill="none"/>
    </g>
    <g id="Rectangle_662" data-name="Rectangle 662" transform="translate(611 69)" fill="#fff" stroke="#ff9800" stroke-width="1">
      <rect width="589" height="322" rx="4" stroke="none"/>
      <rect x="0.5" y="0.5" width="588" height="321" rx="3.5" fill="none"/>
    </g>
  </g>
  <g id="Groupe_1531" data-name="Groupe 1531" transform="translate(-971 -1186)">
    <g id="Composant_2_1" data-name="Composant 2 – 1" transform="translate(1140.75 1300.5)">
      <path id="Tracé_1254" data-name="Tracé 1254" d="M11.6,11.6H45.2V2H11.6A9.628,9.628,0,0,0,2,11.6V45.2h9.6ZM40.4,54.8l-19.2,24H78.8L64.4,59.6,54.656,72.608ZM74,33.2a7.2,7.2,0,1,0-7.2,7.2A7.19,7.19,0,0,0,74,33.2ZM88.4,2H54.8v9.6H88.4V45.2H98V11.6A9.628,9.628,0,0,0,88.4,2Zm0,86.4H54.8V98H88.4A9.628,9.628,0,0,0,98,88.4V54.8H88.4ZM11.6,54.8H2V88.4A9.628,9.628,0,0,0,11.6,98H45.2V88.4H11.6Z" transform="translate(-2 31.25)" fill="#ff9800"/>
      <path id="Tracé_1255" data-name="Tracé 1255" d="M78.8,4l9.6,19.2H74L64.4,4H54.8l9.6,19.2H50L40.4,4H30.8l9.6,19.2H26L16.4,4H11.6a9.587,9.587,0,0,0-9.552,9.6L2,71.2a9.628,9.628,0,0,0,9.6,9.6H88.4A9.628,9.628,0,0,0,98,71.2V4Z" transform="translate(152.25 38.5)" fill="#ff9800"/>
      <line id="Ligne_86" data-name="Ligne 86" x1="62" y2="162" transform="translate(95.75)" fill="none" stroke="#ff9800" stroke-width="2"/>
    </g>
  </g>
</svg>
