<svg xmlns="http://www.w3.org/2000/svg" width="56" height="96" viewBox="0 0 56 96">
  <g id="Groupe_1505" data-name="Groupe 1505" transform="translate(-68 -48)">
    <g id="Groupe_1503" data-name="Groupe 1503">
      <circle id="Ellipse_11" data-name="Ellipse 11" cx="4" cy="4" r="4" transform="translate(92 64)" fill="#001e4c"/>
      <path id="Tracé_1228" data-name="Tracé 1228" d="M103.438,97,124,144,110.205,97H120V95H109.618l-5.37-18.3A11.979,11.979,0,0,0,98,56.18V48H94v8.18a11.978,11.978,0,0,0-6.215,20.551L82.412,95H72v2h9.824L68,144,88.563,97H95v3h2V97ZM96,60a8,8,0,1,1-8,8A8,8,0,0,1,96,60ZM89.438,95,96,80l6.563,15H97V92H95v3Z" fill="#001e4c"/>
    </g>
    <g id="Groupe_1504" data-name="Groupe 1504">
      <circle id="Ellipse_12" data-name="Ellipse 12" cx="4" cy="4" r="4" transform="translate(92 64)" fill="#001e4c"/>
      <path id="Tracé_1229" data-name="Tracé 1229" d="M103.438,97,124,144,110.205,97H120V95H109.618l-5.37-18.3A11.979,11.979,0,0,0,98,56.18V48H94v8.18a11.978,11.978,0,0,0-6.215,20.551L82.412,95H72v2h9.824L68,144,88.563,97H95v3h2V97ZM96,60a8,8,0,1,1-8,8A8,8,0,0,1,96,60ZM89.438,95,96,80l6.563,15H97V92H95v3Z" fill="#001e4c"/>
    </g>
  </g>
</svg>
