<svg id="Logo_Picto" data-name="Logo/Picto" xmlns="http://www.w3.org/2000/svg" viewBox="0 0 96 12"><defs><style>.cls-1{fill:#fff;}</style></defs><title>Logo_PRIME_Texte</title><path class="cls-1" d="M4.41,0A3.8119,3.8119,0,0,1,8.32,4.0111a3.7991,3.7991,0,0,1-3.91,3.995H1.7567V12H0V0Zm0,6.2912A2.1377,2.1377,0,0,0,6.5979,4.0283,2.1423,2.1423,0,0,0,4.41,1.7482H1.7567v4.543Z"/><path class="cls-1" d="M24.4005,5.9147h2.0331a2.0515,2.0515,0,0,0,2.1878-2.0923,2.0472,2.0472,0,0,0-2.1878-2.0742H23.763V12H22.04V0h4.3933a3.7247,3.7247,0,0,1,3.9273,3.8224A3.6173,3.6173,0,0,1,27.243,7.4913L31.05,12H28.7934L24.4005,6.7373Z"/><path class="cls-1" d="M47.6128,0V12h-1.74V0Z"/><path class="cls-1" d="M65.4164,12h-1.74V0h1.4129l3.98,5.8289L73.0479,0h1.3784V12H72.7035V3.5488L69.5511,8.211h-.9818L65.4164,3.5488Z"/><path class="cls-1" d="M90.4012,10.269H96V12H88.6444V.0172h7.3384v1.731H90.4012V5.1254h5.4614V6.8746H90.4012Z"/></svg>